<svg xmlns="http://www.w3.org/2000/svg" viewBox="0 0 1200 400" width="1200" height="400">
  <defs>
    <linearGradient id="advancedBg" x1="0%" y1="0%" x2="100%" y2="100%">
      <stop offset="0%" style="stop-color:#667eea;stop-opacity:1" />
      <stop offset="50%" style="stop-color:#764ba2;stop-opacity:1" />
      <stop offset="100%" style="stop-color:#f093fb;stop-opacity:1" />
    </linearGradient>
    
    <pattern id="techGrid" width="60" height="60" patternUnits="userSpaceOnUse">
      <path d="M 60 0 L 0 0 0 60" fill="none" stroke="rgba(255,255,255,0.08)" stroke-width="1"/>
    </pattern>
  </defs>
  
  <!-- Background -->
  <rect width="1200" height="400" fill="url(#advancedBg)"/>
  <rect width="1200" height="400" fill="url(#techGrid)"/>
  
  <!-- Abstract form elements -->
  <g fill="rgba(255,255,255,0.1)" stroke="rgba(255,255,255,0.15)" stroke-width="2">
    <!-- Form fields simulation -->
    <rect x="150" y="100" width="200" height="30" rx="4"/>
    <rect x="150" y="140" width="200" height="30" rx="4"/>
    <rect x="150" y="180" width="200" height="60" rx="4"/>
    
    <!-- Button simulation -->
    <rect x="150" y="260" width="80" height="35" rx="18" fill="rgba(255,255,255,0.2)"/>
    
    <!-- Cards simulation -->
    <rect x="450" y="80" width="120" height="140" rx="8" fill="rgba(255,255,255,0.08)"/>
    <rect x="590" y="80" width="120" height="140" rx="8" fill="rgba(255,255,255,0.08)"/>
    <rect x="730" y="80" width="120" height="140" rx="8" fill="rgba(255,255,255,0.08)"/>
    
    <!-- Progress bars -->
    <rect x="900" y="120" width="150" height="8" rx="4" fill="rgba(255,255,255,0.1)"/>
    <rect x="900" y="120" width="120" height="8" rx="4" fill="rgba(255,255,255,0.3)"/>
    
    <rect x="900" y="150" width="150" height="8" rx="4" fill="rgba(255,255,255,0.1)"/>
    <rect x="900" y="150" width="90" height="8" rx="4" fill="rgba(255,255,255,0.3)"/>
  </g>
  
  <!-- Title -->
  <text x="600" y="320" font-family="Arial, sans-serif" font-size="42" font-weight="bold" text-anchor="middle" fill="white">
    Advanced Components
  </text>
  <text x="600" y="350" font-family="Arial, sans-serif" font-size="18" text-anchor="middle" fill="rgba(255,255,255,0.9)">
    Forms, Cards, Progress Indicators &amp; More
  </text>
  
  <!-- Decorative tech icons -->
  <g transform="translate(50, 50)" fill="rgba(255,255,255,0.1)">
    <circle cx="0" cy="0" r="15"/>
    <rect x="-8" y="-8" width="16" height="16" rx="2"/>
  </g>
  
  <g transform="translate(1100, 320)" fill="rgba(255,255,255,0.12)">
    <circle cx="0" cy="0" r="20"/>
    <polygon points="0,-12 10,8 -10,8"/>
  </g>
</svg>
