<svg xmlns="http://www.w3.org/2000/svg" viewBox="0 0 200 200">
  <defs>
    <linearGradient id="learningBg" x1="0%" y1="0%" x2="100%" y2="100%">
      <stop offset="0%" style="stop-color:#667eea;stop-opacity:1" />
      <stop offset="100%" style="stop-color:#764ba2;stop-opacity:1" />
    </linearGradient>
  </defs>
  
  <!-- Background -->
  <rect width="200" height="200" rx="10" fill="url(#learningBg)"/>
  
  <!-- Book -->
  <rect x="70" y="70" width="60" height="80" rx="4" fill="white" opacity="0.9"/>
  <rect x="70" y="70" width="60" height="8" fill="#667eea"/>
  <line x1="80" y1="90" x2="120" y2="90" stroke="#667eea" stroke-width="2"/>
  <line x1="80" y1="100" x2="115" y2="100" stroke="#667eea" stroke-width="1"/>
  <line x1="80" y1="110" x2="110" y2="110" stroke="#667eea" stroke-width="1"/>
  <line x1="80" y1="120" x2="118" y2="120" stroke="#667eea" stroke-width="1"/>
  <line x1="80" y1="130" x2="105" y2="130" stroke="#667eea" stroke-width="1"/>
  
  <!-- Graduation cap -->
  <polygon points="100,50 120,40 80,40" fill="white" opacity="0.9"/>
  <rect x="95" y="45" width="10" height="15" fill="white" opacity="0.9"/>
  <circle cx="100" cy="52" r="3" fill="#667eea"/>
  
  <!-- Growth arrow -->
  <path d="M140,120 L160,100 L155,105 L170,105 L170,100 L175,110 L170,120 L170,115 L155,115 L160,120 Z" 
        fill="white" opacity="0.7"/>
  
  <!-- Lightbulb -->
  <circle cx="40" cy="120" r="12" fill="white" opacity="0.8"/>
  <rect x="35" y="130" width="10" height="8" rx="2" fill="white" opacity="0.8"/>
  <path d="M30,120 Q30,110 40,110 Q50,110 50,120" stroke="#667eea" stroke-width="2" fill="none"/>
  
  <!-- Title -->
  <text x="100" y="180" text-anchor="middle" fill="white" font-family="Arial, sans-serif" font-size="14" font-weight="bold">
    Learning &amp; Development
  </text>
</svg>
