<svg viewBox="0 0 600 400" xmlns="http://www.w3.org/2000/svg">
  <defs>
    <linearGradient id="featureGradient" x1="0%" y1="0%" x2="100%" y2="100%">
      <stop offset="0%" style="stop-color:#667eea;stop-opacity:1" />
      <stop offset="100%" style="stop-color:#764ba2;stop-opacity:1" />
    </linearGradient>
  </defs>
  
  <!-- Background -->
  <rect width="600" height="400" fill="url(#featureGradient)"/>
  
  <!-- Component Grid -->
  <g transform="translate(50,50)">
    <!-- Row 1 -->
    <rect x="0" y="0" width="100" height="60" rx="8" fill="white" opacity="0.9"/>
    <rect x="120" y="0" width="100" height="60" rx="8" fill="white" opacity="0.9"/>
    <rect x="240" y="0" width="100" height="60" rx="8" fill="white" opacity="0.9"/>
    <rect x="360" y="0" width="100" height="60" rx="8" fill="white" opacity="0.9"/>
    <rect x="480" y="0" width="100" height="60" rx="8" fill="white" opacity="0.9"/>
    
    <!-- Row 2 -->
    <rect x="0" y="80" width="100" height="60" rx="8" fill="white" opacity="0.9"/>
    <rect x="120" y="80" width="100" height="60" rx="8" fill="white" opacity="0.9"/>
    <rect x="240" y="80" width="100" height="60" rx="8" fill="white" opacity="0.9"/>
    <rect x="360" y="80" width="100" height="60" rx="8" fill="white" opacity="0.9"/>
    <rect x="480" y="80" width="100" height="60" rx="8" fill="white" opacity="0.9"/>
    
    <!-- Row 3 -->
    <rect x="0" y="160" width="100" height="60" rx="8" fill="white" opacity="0.9"/>
    <rect x="120" y="160" width="100" height="60" rx="8" fill="white" opacity="0.9"/>
    <rect x="240" y="160" width="100" height="60" rx="8" fill="white" opacity="0.9"/>
    <rect x="360" y="160" width="100" height="60" rx="8" fill="white" opacity="0.9"/>
    <rect x="480" y="160" width="100" height="60" rx="8" fill="white" opacity="0.9"/>
    
    <!-- Row 4 -->
    <rect x="0" y="240" width="100" height="60" rx="8" fill="white" opacity="0.9"/>
    <rect x="120" y="240" width="100" height="60" rx="8" fill="white" opacity="0.9"/>
    <rect x="240" y="240" width="100" height="60" rx="8" fill="white" opacity="0.9"/>
    <rect x="360" y="240" width="100" height="60" rx="8" fill="white" opacity="0.9"/>
    <rect x="480" y="240" width="100" height="60" rx="8" fill="white" opacity="0.9"/>
  </g>
  
  <!-- Title -->
  <text x="300" y="350" text-anchor="middle" fill="white" font-family="Arial, sans-serif" font-size="20" font-weight="bold">Components</text>
  <text x="300" y="375" text-anchor="middle" fill="white" font-family="Arial, sans-serif" font-size="12" opacity="0.9">All UI Elements</text>
</svg>
